<?xml version="1.0" encoding="UTF-8"?>
<svg id="Layer_2" data-name="Layer 2" xmlns="http://www.w3.org/2000/svg" viewBox="0 0 187.75 160.21">
  <defs>
    <style>
      .cls-1 {
        fill: #ef4136;
      }
    </style>
  </defs>
  <g id="Layer_1-2" data-name="Layer 1">
    <g>
      <path class="cls-1" d="M29.11,.13V44.78l8.62-.53L60.01,.13h30.6l-25.85,47.32c-1.19,2.53-5.94,4.4-11.59,4.4l-22.87,.27v1.07l32.38,4.93,32.68,102.1h-30.9L34.76,61.71l-5.64-.8v99.16H0V.13H29.11Z"/>
      <path class="cls-1" d="M133.68,0h20.5c20.2,0,33.57,6.26,33.57,15.59V53.45h-29.11V16.13c0-4-4.46-6-13.07-6.13h-5.94l-9.51,6.4v127.69c0,4,4.46,6,13.37,6h5.64l9.51-6.26V75.44h29.11v63.98l-32.97,20.66h-20.2c-20.2,0-33.57-6.26-33.57-15.46V20.66L133.68,0Z"/>
    </g>
  </g>
</svg>